[export-video] transcoding chunk 1 → /home/runner/workspace/artifacts/vndrly-commercial/dist/video/raw/chunk-1.mp4 (trim 800ms, 89s)
ffmpeg version 6.1.2 Copyright (c) 2000-2024 the FFmpeg developers
  built with gcc 14.3.0 (GCC)
  configuration: --disable-static --prefix=/nix/store/eeeeeeeeeeeeeeeeeeeeeeeeeeeeeeee-ffmpeg-full-6.1.2 --target_os=linux --arch=x86_64 --pkg-config=pkg-config --enable-gpl --enable-version3 --disable-nonfree --disable-static --enable-shared --enable-pic --disable-thumb --disable-small --enable-runtime-cpudetect --enable-gray --enable-swscale-alpha --enable-hardcoded-tables --enable-safe-bitstream-reader --enable-pthreads --disable-w32threads --disable-os2threads --enable-network --enable-pixelutils --datadir=/nix/store/d7n6dq6npac4j0x7my10nnaf3qjcih3n-ffmpeg-full-6.1.2-data/share/ffmpeg --enable-ffmpeg --enable-ffplay --enable-ffprobe --bindir=/nix/store/eeeeeeeeeeeeeeeeeeeeeeeeeeeeeeee-ffmpeg-full-6.1.2-bin/bin --enable-avcodec --enable-avdevice --enable-avfilter --enable-avformat --enable-avutil --enable-postproc --enable-swresample --enable-swscale --libdir=/nix/store/eeeeeeeeeeeeeeeeeeeeeeeeeeeeeeee-ffmpeg-full-6.1.2-lib/lib --incdir=/nix/store/eeeeeeeeeeeeeeeeeeeeeeeeeeeeeeee-ffmpeg-full-6.1.2-dev/include --enable-doc --enable-htmlpages --enable-manpages --mandir=/nix/store/eeeeeeeeeeeeeeeeeeeeeeeeeeeeeeee-ffmpeg-full-6.1.2-man/share/man --enable-podpages --enable-txtpages --docdir=/nix/store/eeeeeeeeeeeeeeeeeeeeeeeeeeeeeeee-ffmpeg-full-6.1.2-doc/share/doc/ffmpeg --enable-alsa --enable-amf --enable-libaom --enable-libaribb24 --enable-libaribcaption --enable-libass --enable-avisynth --enable-libbluray --enable-libbs2b --enable-bzlib --enable-libcaca --enable-libcdio --enable-libcelt --enable-chromaprint --enable-libcodec2 --enable-cuda --enable-cuda-llvm --disable-cuda-nvcc --enable-cuvid --enable-libdav1d --enable-libdc1394 --enable-libdrm --disable-libfdk-aac --enable-ffnvcodec --enable-libflite --enable-fontconfig --enable-libfontconfig --enable-libfreetype --enable-frei0r --enable-libfribidi --enable-libgme --enable-gnutls --enable-libgsm --enable-libharfbuzz --enable-iconv --enable-libilbc --enable-libjack --enable-libjxl --enable-libkvazaar --enable-ladspa --enable-lcms2 --enable-lzma --disable-metal --enable-libmfx --enable-libmodplug --enable-libmp3lame --enable-libmysofa --disable-libnpp --enable-nvdec --enable-nvenc --enable-openal --enable-opencl --enable-libopencore-amrnb --enable-libopencore-amrwb --enable-opengl --enable-libopenh264 --enable-libopenjpeg --enable-libopenmpt --enable-libopus --enable-libplacebo --enable-libpulse --enable-librav1e --enable-librist --enable-librtmp --enable-librubberband --enable-libsmbclient --enable-sdl2 --enable-libshaderc --enable-libshine --enable-libsnappy --enable-libsoxr --enable-libspeex --enable-libsrt --enable-libssh --enable-librsvg --enable-libsvtav1 --disable-libtensorflow --enable-libtheora --enable-libtwolame --enable-libv4l2 --enable-v4l2-m2m --enable-vaapi --enable-vdpau --disable-libvpl --enable-libvidstab --enable-libvmaf --enable-libvo-amrwbenc --enable-libvorbis --enable-libvpx --enable-vulkan --enable-libwebp --enable-libx264 --enable-libx265 --enable-libxavs --enable-libxcb --enable-libxcb-shape --enable-libxcb-shm --enable-libxcb-xfixes --enable-xlib --enable-libxml2 --enable-libxvid --enable-libzimg --enable-zlib --enable-libzmq --enable-libzvbi --disable-debug --enable-optimizations --disable-extra-warnings --disable-stripping
  libavutil      58. 29.100 / 58. 29.100
  libavcodec     60. 31.102 / 60. 31.102
  libavformat    60. 16.100 / 60. 16.100
  libavdevice    60.  3.100 / 60.  3.100
  libavfilter     9. 12.100 /  9. 12.100
  libswscale      7.  5.100 /  7.  5.100
  libswresample   4. 12.100 /  4. 12.100
  libpostproc    57.  3.100 / 57.  3.100
Input #0, matroska,webm, from '/home/runner/workspace/artifacts/vndrly-commercial/dist/video/raw/chunk-1.webm':
  Metadata:
    ENCODER         : Lavf61.1.100
  Duration: 00:01:32.00, start: 0.000000, bitrate: 604 kb/s
  Stream #0:0: Video: vp8, yuv420p(progressive), 1280x720, SAR 1:1 DAR 16:9, 25 fps, 25 tbr, 1k tbn
    Metadata:
      ENCODER         : Lavc61.3.100 libvpx
      DURATION        : 00:01:32.000000000
Stream mapping:
  Stream #0:0 -> #0:0 (vp8 (native) -> h264 (libx264))
Press [q] to stop, [?] for help
[libx264 @ 0xa8bf000] using SAR=1/1
[libx264 @ 0xa8bf000] using cpu capabilities: MMX2 SSE2Fast SSSE3 SSE4.2 AVX FMA3 BMI2 AVX2 AVX512
[libx264 @ 0xa8bf000] profile High, level 4.0, 4:2:0, 8-bit
[libx264 @ 0xa8bf000] 264 - core 164 - H.264/MPEG-4 AVC codec - Copyleft 2003-2025 - http://www.videolan.org/x264.html - options: cabac=1 ref=3 deblock=1:0:0 analyse=0x3:0x113 me=hex subme=7 psy=1 psy_rd=1.00:0.00 mixed_ref=1 me_range=16 chroma_me=1 trellis=1 8x8dct=1 cqm=0 deadzone=21,11 fast_pskip=1 chroma_qp_offset=-2 threads=9 lookahead_threads=1 sliced_threads=0 nr=0 decimate=1 interlaced=0 bluray_compat=0 constrained_intra=0 bframes=3 b_pyramid=2 b_adapt=1 b_bias=0 direct=1 weightb=1 open_gop=0 weightp=2 keyint=250 keyint_min=25 scenecut=40 intra_refresh=0 rc_lookahead=40 rc=crf mbtree=1 crf=18.0 qcomp=0.60 qpmin=0 qpmax=69 qpstep=4 ip_ratio=1.40 aq=1:1.00
Output #0, mp4, to '/home/runner/workspace/artifacts/vndrly-commercial/dist/video/raw/chunk-1.mp4':
  Metadata:
    encoder         : Lavf60.16.100
  Stream #0:0: Video: h264 (avc1 / 0x31637661), yuv420p(tv, bt470bg/unknown/unknown, progressive), 1920x1080 [SAR 1:1 DAR 16:9], q=2-31, 30 fps, 15360 tbn
    Metadata:
      DURATION        : 00:01:32.000000000
      encoder         : Lavc60.31.102 libx264
    Side data:
      cpb: bitrate max/min/avg: 0/0/0 buffer size: 0 vbv_delay: N/A
frame=    0 fps=0.0 q=0.0 size=       0kB time=N/A bitrate=N/A speed=N/A    frame=    0 fps=0.0 q=0.0 size=       0kB time=N/A bitrate=N/A speed=N/A    frame=   11 fps=7.5 q=24.0 size=       0kB time=00:00:00.26 bitrate=   1.4kbits/s speed=0.183x    frame=   16 fps=8.2 q=24.0 size=       0kB time=00:00:00.46 bitrate=   0.8kbits/s speed=0.238x    frame=   28 fps= 11 q=24.0 size=     256kB time=00:00:00.86 bitrate=2420.2kbits/s speed=0.328x    frame=   42 fps= 13 q=24.0 size=     512kB time=00:00:01.30 bitrate=3226.7kbits/s speed=0.394x    frame=   55 fps= 14 q=24.0 size=     512kB time=00:00:01.76 bitrate=2374.4kbits/s speed=0.463x    frame=   61 fps= 14 q=24.0 size=     768kB time=00:00:01.93 bitrate=3254.4kbits/s speed=0.448x    frame=   69 fps= 14 q=24.0 size=     768kB time=00:00:02.23 bitrate=2817.2kbits/s speed=0.462x    frame=   74 fps= 14 q=24.0 size=    1024kB time=00:00:02.40 bitrate=3495.4kbits/s speed=0.449x    frame=   83 fps= 14 q=24.0 size=    1280kB time=00:00:02.66 bitrate=3932.3kbits/s speed=0.456x    frame=   94 fps= 15 q=24.0 size=    1536kB time=00:00:03.06 bitrate=4103.2kbits/s speed=0.48x    frame=  104 fps= 15 q=24.0 size=    1536kB time=00:00:03.40 bitrate=3701.0kbits/s speed=0.491x    frame=  114 fps= 15 q=24.0 size=    1792kB time=00:00:03.73 bitrate=3932.3kbits/s speed=0.501x    frame=  129 fps= 16 q=24.0 size=    2048kB time=00:00:04.23 bitrate=3963.2kbits/s speed=0.522x    frame=  145 fps= 17 q=24.0 size=    2304kB time=00:00:04.76 bitrate=3959.7kbits/s speed=0.548x    frame=  158 fps= 17 q=24.0 size=    2560kB time=00:00:05.20 bitrate=4033.1kbits/s speed=0.566x    frame=  170 fps= 17 q=24.0 size=    2816kB time=00:00:05.60 bitrate=4119.5kbits/s speed=0.572x    frame=  181 fps= 17 q=24.0 size=    3072kB time=00:00:05.96 bitrate=4217.8kbits/s speed=0.569x    frame=  193 fps= 18 q=24.0 size=    3328kB time=00:00:06.36 bitrate=4282.2kbits/s speed=0.58x    frame=  208 fps= 18 q=24.0 size=    3328kB time=00:00:06.86 bitrate=3970.4kbits/s speed=0.597x    frame=  221 fps= 18 q=24.0 size=    3584kB time=00:00:07.26 bitrate=4040.4kbits/s speed=0.603x    frame=  233 fps= 19 q=24.0 size=    3840kB time=00:00:07.70 bitrate=4085.4kbits/s speed=0.613x    frame=  243 fps= 19 q=24.0 size=    3840kB time=00:00:08.03 bitrate=3915.9kbits/s speed=0.614x    frame=  255 fps= 19 q=24.0 size=    4352kB time=00:00:08.40 bitrate=4244.3kbits/s speed=0.617x    frame=  266 fps= 19 q=24.0 size=    4608kB time=00:00:08.80 bitrate=4289.7kbits/s speed=0.62x    frame=  284 fps= 19 q=24.0 size=    4864kB time=00:00:09.40 bitrate=4239.0kbits/s speed=0.639x    frame=  302 fps= 20 q=24.0 size=    5120kB time=00:00:10.00 bitrate=4194.3kbits/s speed=0.657x    frame=  319 fps= 20 q=24.0 size=    5376kB time=00:00:10.53 bitrate=4181.1kbits/s speed=0.668x    frame=  331 fps= 20 q=24.0 size=    5632kB time=00:00:10.96 bitrate=4207.1kbits/s speed=0.674x    frame=  346 fps= 21 q=24.0 size=    5888kB time=00:00:11.46 bitrate=4206.5kbits/s speed=0.683x    frame=  357 fps= 21 q=24.0 size=    6144kB time=00:00:11.83 bitrate=4253.4kbits/s speed=0.685x    frame=  368 fps= 21 q=24.0 size=    6400kB time=00:00:12.20 bitrate=4297.5kbits/s speed=0.682x    frame=  384 fps= 21 q=24.0 size=    6400kB time=00:00:12.73 bitrate=4117.5kbits/s speed=0.691x    frame=  394 fps= 21 q=24.0 size=    6656kB time=00:00:13.06 bitrate=4172.9kbits/s speed=0.69x    frame=  404 fps= 21 q=24.0 size=    6912kB time=00:00:13.40 bitrate=4225.6kbits/s speed=0.689x    frame=  423 fps= 21 q=24.0 size=    7168kB time=00:00:14.03 bitrate=4184.4kbits/s speed=0.702x    frame=  438 fps= 21 q=24.0 size=    7168kB time=00:00:14.53 bitrate=4040.4kbits/s speed=0.707x    frame=  463 fps= 22 q=24.0 size=    7424kB time=00:00:15.36 bitrate=3957.8kbits/s speed=0.729x    frame=  488 fps= 23 q=24.0 size=    7424kB time=00:00:16.20 bitrate=3754.2kbits/s speed=0.75x    frame=  514 fps= 23 q=24.0 size=    7680kB time=00:00:17.03 bitrate=3693.6kbits/s speed=0.771x    frame=  536 fps= 24 q=24.0 size=    7680kB time=00:00:17.80 bitrate=3534.5kbits/s speed=0.787x    frame=  561 fps= 24 q=24.0 size=    7936kB time=00:00:18.63 bitrate=3489.0kbits/s speed=0.806x    frame=  589 fps= 25 q=24.0 size=    7936kB time=00:00:19.56 bitrate=3322.6kbits/s speed=0.824x    frame=  608 fps= 25 q=24.0 size=    8192kB time=00:00:20.20 bitrate=3322.2kbits/s speed=0.828x    frame=  622 fps= 25 q=24.0 size=    8192kB time=00:00:20.66 bitrate=3247.2kbits/s speed=0.83x    frame=  643 fps= 25 q=24.0 size=    8448kB time=00:00:21.36 bitrate=3239.0kbits/s speed=0.84x    frame=  684 fps= 26 q=24.0 size=    8448kB time=00:00:22.73 bitrate=3044.3kbits/s speed=0.876x    frame=  732 fps= 28 q=24.0 size=    8704kB time=00:00:24.33 bitrate=2930.3kbits/s speed=0.92x    frame=  764 fps= 28 q=24.0 size=    8960kB time=00:00:25.36 bitrate=2893.6kbits/s speed=0.941x    frame=  813 fps= 30 q=24.0 size=    9216kB time=00:00:27.00 bitrate=2796.2kbits/s speed=0.983x    frame=  854 fps= 31 q=24.0 size=    9216kB time=00:00:28.36 bitrate=2661.5kbits/s speed=1.01x    frame=  896 fps= 31 q=24.0 size=    9472kB time=00:00:29.80 bitrate=2603.9kbits/s speed=1.05x    frame=  933 fps= 32 q=24.0 size=    9728kB time=00:00:31.03 bitrate=2568.0kbits/s speed=1.07x    frame=  969 fps= 33 q=21.0 size=    9984kB time=00:00:32.23 bitrate=2537.4kbits/s speed=1.09x    frame=  991 fps= 33 q=24.0 size=    9984kB time=00:00:32.96 bitrate=2481.0kbits/s speed= 1.1x    frame= 1015 fps= 33 q=24.0 size=    9984kB time=00:00:33.76 bitrate=2422.2kbits/s speed=1.11x    frame= 1052 fps= 34 q=24.0 size=   10240kB time=00:00:34.96 bitrate=2399.0kbits/s speed=1.12x    frame= 1091 fps= 34 q=24.0 size=   10496kB time=00:00:36.26 bitrate=2370.9kbits/s speed=1.15x    frame= 1135 fps= 35 q=24.0 size=   10496kB time=00:00:37.76 bitrate=2276.7kbits/s speed=1.17x    frame= 1162 fps= 36 q=24.0 size=   10496kB time=00:00:38.66 bitrate=2223.7kbits/s speed=1.18x    frame= 1191 fps= 36 q=24.0 size=   10752kB time=00:00:39.63 bitrate=2222.4kbits/s speed=1.19x    frame= 1219 fps= 36 q=24.0 size=   10752kB time=00:00:40.56 bitrate=2171.3kbits/s speed= 1.2x    frame= 1263 fps= 37 q=24.0 size=   11008kB time=00:00:42.03 bitrate=2145.4kbits/s speed=1.23x    frame= 1311 fps= 38 q=24.0 size=   11008kB time=00:00:43.66 bitrate=2065.1kbits/s speed=1.26x    frame= 1359 fps= 39 q=24.0 size=   11264kB time=00:00:45.23 bitrate=2040.0kbits/s speed=1.28x    frame= 1423 fps= 40 q=24.0 size=   11264kB time=00:00:47.36 bitrate=1948.1kbits/s speed=1.32x    frame= 1479 fps= 41 q=24.0 size=   11520kB time=00:00:49.23 bitrate=1916.8kbits/s speed=1.36x    frame= 1524 fps= 41 q=24.0 size=   11520kB time=00:00:50.70 bitrate=1861.4kbits/s speed=1.38x    frame= 1572 fps= 42 q=21.0 size=   11520kB time=00:00:52.33 bitrate=1803.3kbits/s speed= 1.4x    frame= 1617 fps= 43 q=24.0 size=   11776kB time=00:00:53.83 bitrate=1792.0kbits/s speed=1.42x    frame= 1659 fps= 43 q=24.0 size=   11776kB time=00:00:55.26 bitrate=1745.5kbits/s speed=1.44x    frame= 1695 fps= 44 q=24.0 size=   11776kB time=00:00:56.43 bitrate=1709.4kbits/s speed=1.45x    frame= 1751 fps= 45 q=24.0 size=   11776kB time=00:00:58.30 bitrate=1654.7kbits/s speed=1.48x    frame= 1795 fps= 45 q=24.0 size=   11776kB time=00:00:59.76 bitrate=1614.1kbits/s speed= 1.5x    frame= 1826 fps= 45 q=24.0 size=   12032kB time=00:01:00.80 bitrate=1621.2kbits/s speed=1.51x    frame= 1842 fps= 45 q=24.0 size=   12288kB time=00:01:01.33 bitrate=1641.3kbits/s speed= 1.5x    frame= 1863 fps= 45 q=24.0 size=   12800kB time=00:01:02.03 bitrate=1690.3kbits/s speed= 1.5x    frame= 1894 fps= 45 q=24.0 size=   12800kB time=00:01:03.06 bitrate=1662.7kbits/s speed= 1.5x    frame= 1929 fps= 45 q=24.0 size=   13056kB time=00:01:04.23 bitrate=1665.1kbits/s speed=1.51x    frame= 1964 fps= 46 q=24.0 size=   13056kB time=00:01:05.40 bitrate=1635.4kbits/s speed=1.52x    frame= 1992 fps= 46 q=24.0 size=   13312kB time=00:01:06.33 bitrate=1644.0kbits/s speed=1.52x    frame= 2032 fps= 46 q=24.0 size=   13568kB time=00:01:07.66 bitrate=1642.6kbits/s speed=1.53x    frame= 2061 fps= 46 q=24.0 size=   14080kB time=00:01:08.63 bitrate=1680.6kbits/s speed=1.54x    frame= 2098 fps= 47 q=24.0 size=   14080kB time=00:01:09.86 bitrate=1650.9kbits/s speed=1.55x    frame= 2124 fps= 46 q=24.0 size=   14336kB time=00:01:10.73 bitrate=1660.3kbits/s speed=1.55x    frame= 2154 fps= 47 q=24.0 size=   14592kB time=00:01:11.73 bitrate=1666.4kbits/s speed=1.55x    frame= 2187 fps= 47 q=24.0 size=   14848kB time=00:01:12.83 bitrate=1670.0kbits/s speed=1.56x    frame= 2222 fps= 47 q=24.0 size=   14848kB time=00:01:14.00 bitrate=1643.7kbits/s speed=1.57x    frame= 2249 fps= 47 q=24.0 size=   15104kB time=00:01:14.86 bitrate=1652.7kbits/s speed=1.57x    frame= 2282 fps= 47 q=24.0 size=   15104kB time=00:01:16.00 bitrate=1628.1kbits/s speed=1.58x    frame= 2325 fps= 48 q=24.0 size=   15360kB time=00:01:17.43 bitrate=1625.0kbits/s speed=1.59x    frame= 2379 fps= 48 q=24.0 size=   15616kB time=00:01:19.23 bitrate=1614.6kbits/s speed=1.61x    frame= 2440 fps= 49 q=24.0 size=   15616kB time=00:01:21.26 bitrate=1574.2kbits/s speed=1.63x    frame= 2499 fps= 50 q=24.0 size=   15616kB time=00:01:23.20 bitrate=1537.6kbits/s speed=1.66x    frame= 2556 fps= 50 q=24.0 size=   15872kB time=00:01:25.13 bitrate=1527.3kbits/s speed=1.68x    frame= 2601 fps= 51 q=24.0 size=   15872kB time=00:01:26.63 bitrate=1500.9kbits/s speed=1.69x    [out#0/mp4 @ 0xa8bbbc0] video:16142kB audio:0kB subtitle:0kB other streams:0kB global headers:0kB muxing overhead: 0.198342%
frame= 2670 fps= 52 q=-1.0 Lsize=   16174kB time=00:01:28.90 bitrate=1490.4kbits/s speed=1.72x    
[libx264 @ 0xa8bf000] frame I:19    Avg QP: 7.34  size: 70802
[libx264 @ 0xa8bf000] frame P:715   Avg QP:12.33  size: 16111
[libx264 @ 0xa8bf000] frame B:1936  Avg QP:14.32  size:  1893
[libx264 @ 0xa8bf000] consecutive B-frames:  2.1%  2.2%  4.3% 91.4%
[libx264 @ 0xa8bf000] mb I  I16..4: 43.3% 48.2%  8.5%
[libx264 @ 0xa8bf000] mb P  I16..4:  5.1%  9.3%  0.6%  P16..4: 10.3%  3.8%  2.3%  0.0%  0.0%    skip:68.5%
[libx264 @ 0xa8bf000] mb B  I16..4:  0.2%  0.2%  0.0%  B16..8:  6.8%  0.5%  0.1%  direct: 5.4%  skip:86.8%  L0:45.4% L1:50.8% BI: 3.8%
[libx264 @ 0xa8bf000] 8x8 transform intra:58.9% inter:61.6%
[libx264 @ 0xa8bf000] coded y,uvDC,uvAC intra: 13.9% 18.4% 12.7% inter: 2.8% 6.5% 0.9%
[libx264 @ 0xa8bf000] i16 v,h,dc,p: 71% 23%  5%  1%
[libx264 @ 0xa8bf000] i8 v,h,dc,ddl,ddr,vr,hd,vl,hu: 46% 16% 32%  1%  1%  1%  1%  1%  1%
[libx264 @ 0xa8bf000] i4 v,h,dc,ddl,ddr,vr,hd,vl,hu: 34% 31% 15%  3%  4%  3%  4%  3%  3%
[libx264 @ 0xa8bf000] i8c dc,h,v,p: 77% 14%  8%  1%
[libx264 @ 0xa8bf000] Weighted P-Frames: Y:8.5% UV:4.8%
[libx264 @ 0xa8bf000] ref P L0: 67.1% 10.5% 17.1%  5.1%  0.2%
[libx264 @ 0xa8bf000] ref B L0: 86.6% 11.8%  1.7%
[libx264 @ 0xa8bf000] ref B L1: 94.5%  5.5%
[libx264 @ 0xa8bf000] kb/s:1485.74
[export-video] transcoding chunk 2 → /home/runner/workspace/artifacts/vndrly-commercial/dist/video/raw/chunk-2.mp4 (trim 800ms, 74s)
ffmpeg version 6.1.2 Copyright (c) 2000-2024 the FFmpeg developers
  built with gcc 14.3.0 (GCC)
  configuration: --disable-static --prefix=/nix/store/eeeeeeeeeeeeeeeeeeeeeeeeeeeeeeee-ffmpeg-full-6.1.2 --target_os=linux --arch=x86_64 --pkg-config=pkg-config --enable-gpl --enable-version3 --disable-nonfree --disable-static --enable-shared --enable-pic --disable-thumb --disable-small --enable-runtime-cpudetect --enable-gray --enable-swscale-alpha --enable-hardcoded-tables --enable-safe-bitstream-reader --enable-pthreads --disable-w32threads --disable-os2threads --enable-network --enable-pixelutils --datadir=/nix/store/d7n6dq6npac4j0x7my10nnaf3qjcih3n-ffmpeg-full-6.1.2-data/share/ffmpeg --enable-ffmpeg --enable-ffplay --enable-ffprobe --bindir=/nix/store/eeeeeeeeeeeeeeeeeeeeeeeeeeeeeeee-ffmpeg-full-6.1.2-bin/bin --enable-avcodec --enable-avdevice --enable-avfilter --enable-avformat --enable-avutil --enable-postproc --enable-swresample --enable-swscale --libdir=/nix/store/eeeeeeeeeeeeeeeeeeeeeeeeeeeeeeee-ffmpeg-full-6.1.2-lib/lib --incdir=/nix/store/eeeeeeeeeeeeeeeeeeeeeeeeeeeeeeee-ffmpeg-full-6.1.2-dev/include --enable-doc --enable-htmlpages --enable-manpages --mandir=/nix/store/eeeeeeeeeeeeeeeeeeeeeeeeeeeeeeee-ffmpeg-full-6.1.2-man/share/man --enable-podpages --enable-txtpages --docdir=/nix/store/eeeeeeeeeeeeeeeeeeeeeeeeeeeeeeee-ffmpeg-full-6.1.2-doc/share/doc/ffmpeg --enable-alsa --enable-amf --enable-libaom --enable-libaribb24 --enable-libaribcaption --enable-libass --enable-avisynth --enable-libbluray --enable-libbs2b --enable-bzlib --enable-libcaca --enable-libcdio --enable-libcelt --enable-chromaprint --enable-libcodec2 --enable-cuda --enable-cuda-llvm --disable-cuda-nvcc --enable-cuvid --enable-libdav1d --enable-libdc1394 --enable-libdrm --disable-libfdk-aac --enable-ffnvcodec --enable-libflite --enable-fontconfig --enable-libfontconfig --enable-libfreetype --enable-frei0r --enable-libfribidi --enable-libgme --enable-gnutls --enable-libgsm --enable-libharfbuzz --enable-iconv --enable-libilbc --enable-libjack --enable-libjxl --enable-libkvazaar --enable-ladspa --enable-lcms2 --enable-lzma --disable-metal --enable-libmfx --enable-libmodplug --enable-libmp3lame --enable-libmysofa --disable-libnpp --enable-nvdec --enable-nvenc --enable-openal --enable-opencl --enable-libopencore-amrnb --enable-libopencore-amrwb --enable-opengl --enable-libopenh264 --enable-libopenjpeg --enable-libopenmpt --enable-libopus --enable-libplacebo --enable-libpulse --enable-librav1e --enable-librist --enable-librtmp --enable-librubberband --enable-libsmbclient --enable-sdl2 --enable-libshaderc --enable-libshine --enable-libsnappy --enable-libsoxr --enable-libspeex --enable-libsrt --enable-libssh --enable-librsvg --enable-libsvtav1 --disable-libtensorflow --enable-libtheora --enable-libtwolame --enable-libv4l2 --enable-v4l2-m2m --enable-vaapi --enable-vdpau --disable-libvpl --enable-libvidstab --enable-libvmaf --enable-libvo-amrwbenc --enable-libvorbis --enable-libvpx --enable-vulkan --enable-libwebp --enable-libx264 --enable-libx265 --enable-libxavs --enable-libxcb --enable-libxcb-shape --enable-libxcb-shm --enable-libxcb-xfixes --enable-xlib --enable-libxml2 --enable-libxvid --enable-libzimg --enable-zlib --enable-libzmq --enable-libzvbi --disable-debug --enable-optimizations --disable-extra-warnings --disable-stripping
  libavutil      58. 29.100 / 58. 29.100
  libavcodec     60. 31.102 / 60. 31.102
  libavformat    60. 16.100 / 60. 16.100
  libavdevice    60.  3.100 / 60.  3.100
  libavfilter     9. 12.100 /  9. 12.100
  libswscale      7.  5.100 /  7.  5.100
  libswresample   4. 12.100 /  4. 12.100
  libpostproc    57.  3.100 / 57.  3.100
Input #0, matroska,webm, from '/home/runner/workspace/artifacts/vndrly-commercial/dist/video/raw/chunk-2.webm':
  Metadata:
    ENCODER         : Lavf61.1.100
  Duration: 00:01:16.36, start: 0.000000, bitrate: 552 kb/s
  Stream #0:0: Video: vp8, yuv420p(progressive), 1280x720, SAR 1:1 DAR 16:9, 25 fps, 25 tbr, 1k tbn
    Metadata:
      ENCODER         : Lavc61.3.100 libvpx
      DURATION        : 00:01:16.360000000
Stream mapping:
  Stream #0:0 -> #0:0 (vp8 (native) -> h264 (libx264))
Press [q] to stop, [?] for help
[libx264 @ 0x2400cd40] using SAR=1/1
[libx264 @ 0x2400cd40] using cpu capabilities: MMX2 SSE2Fast SSSE3 SSE4.2 AVX FMA3 BMI2 AVX2 AVX512
[libx264 @ 0x2400cd40] profile High, level 4.0, 4:2:0, 8-bit
[libx264 @ 0x2400cd40] 264 - core 164 - H.264/MPEG-4 AVC codec - Copyleft 2003-2025 - http://www.videolan.org/x264.html - options: cabac=1 ref=3 deblock=1:0:0 analyse=0x3:0x113 me=hex subme=7 psy=1 psy_rd=1.00:0.00 mixed_ref=1 me_range=16 chroma_me=1 trellis=1 8x8dct=1 cqm=0 deadzone=21,11 fast_pskip=1 chroma_qp_offset=-2 threads=9 lookahead_threads=1 sliced_threads=0 nr=0 decimate=1 interlaced=0 bluray_compat=0 constrained_intra=0 bframes=3 b_pyramid=2 b_adapt=1 b_bias=0 direct=1 weightb=1 open_gop=0 weightp=2 keyint=250 keyint_min=25 scenecut=40 intra_refresh=0 rc_lookahead=40 rc=crf mbtree=1 crf=18.0 qcomp=0.60 qpmin=0 qpmax=69 qpstep=4 ip_ratio=1.40 aq=1:1.00
Output #0, mp4, to '/home/runner/workspace/artifacts/vndrly-commercial/dist/video/raw/chunk-2.mp4':
  Metadata:
    encoder         : Lavf60.16.100
  Stream #0:0: Video: h264 (avc1 / 0x31637661), yuv420p(tv, bt470bg/unknown/unknown, progressive), 1920x1080 [SAR 1:1 DAR 16:9], q=2-31, 30 fps, 15360 tbn
    Metadata:
      DURATION        : 00:01:16.360000000
      encoder         : Lavc60.31.102 libx264
    Side data:
      cpb: bitrate max/min/avg: 0/0/0 buffer size: 0 vbv_delay: N/A
frame=    0 fps=0.0 q=0.0 size=       0kB time=N/A bitrate=N/A speed=N/A    frame=    6 fps=0.0 q=24.0 size=       0kB time=00:00:00.13 bitrate=   2.9kbits/s speed=0.211x    frame=   70 fps= 61 q=24.0 size=       0kB time=00:00:02.23 bitrate=   0.2kbits/s speed=1.96x    frame=  132 fps= 77 q=24.0 size=       0kB time=00:00:04.33 bitrate=   0.1kbits/s speed=2.54x    frame=  202 fps= 92 q=24.0 size=       0kB time=00:00:06.66 bitrate=   0.1kbits/s speed=3.02x    frame=  258 fps= 95 q=24.0 size=     256kB time=00:00:08.53 bitrate= 245.8kbits/s speed=3.15x    frame=  322 fps=100 q=24.0 size=     256kB time=00:00:10.66 bitrate= 196.6kbits/s speed=3.31x    frame=  386 fps=104 q=24.0 size=     512kB time=00:00:12.80 bitrate= 327.7kbits/s speed=3.43x    frame=  432 fps=102 q=24.0 size=     512kB time=00:00:14.33 bitrate= 292.7kbits/s speed=3.39x    frame=  465 fps= 98 q=24.0 size=     512kB time=00:00:15.40 bitrate= 272.4kbits/s speed=3.25x    frame=  513 fps= 98 q=24.0 size=     768kB time=00:00:17.06 bitrate= 368.7kbits/s speed=3.26x    frame=  580 fps=101 q=24.0 size=     768kB time=00:00:19.23 bitrate= 327.1kbits/s speed=3.34x    frame=  619 fps= 99 q=24.0 size=    1024kB time=00:00:20.56 bitrate= 407.9kbits/s speed=3.28x    frame=  664 fps= 98 q=24.0 size=    1024kB time=00:00:22.06 bitrate= 380.2kbits/s speed=3.26x    frame=  699 fps= 96 q=24.0 size=    1280kB time=00:00:23.23 bitrate= 451.3kbits/s speed=3.19x    frame=  753 fps= 97 q=24.0 size=    1536kB time=00:00:25.03 bitrate= 502.7kbits/s speed=3.21x    frame=  811 fps= 98 q=24.0 size=    1536kB time=00:00:26.93 bitrate= 467.2kbits/s speed=3.25x    frame=  877 fps=100 q=24.0 size=    1536kB time=00:00:29.16 bitrate= 431.4kbits/s speed=3.31x    frame=  933 fps=100 q=24.0 size=    1792kB time=00:00:31.03 bitrate= 473.1kbits/s speed=3.33x    frame=  996 fps=101 q=24.0 size=    1792kB time=00:00:33.13 bitrate= 443.1kbits/s speed=3.37x    frame= 1048 fps=101 q=24.0 size=    2048kB time=00:00:34.86 bitrate= 481.2kbits/s speed=3.38x    frame= 1096 fps=101 q=24.0 size=    2048kB time=00:00:36.46 bitrate= 460.1kbits/s speed=3.37x    frame= 1130 fps=100 q=24.0 size=    2304kB time=00:00:37.60 bitrate= 502.0kbits/s speed=3.32x    frame= 1158 fps= 98 q=24.0 size=    2304kB time=00:00:38.53 bitrate= 489.8kbits/s speed=3.25x    frame= 1204 fps= 98 q=24.0 size=    2560kB time=00:00:40.06 bitrate= 523.4kbits/s speed=3.25x    frame= 1257 fps= 98 q=24.0 size=    2816kB time=00:00:41.83 bitrate= 551.5kbits/s speed=3.25x    frame= 1315 fps= 98 q=24.0 size=    2816kB time=00:00:43.73 bitrate= 527.5kbits/s speed=3.27x    frame= 1365 fps= 98 q=24.0 size=    3072kB time=00:00:45.43 bitrate= 553.9kbits/s speed=3.28x    frame= 1407 fps= 98 q=24.0 size=    3072kB time=00:00:46.83 bitrate= 537.4kbits/s speed=3.26x    frame= 1437 fps= 96 q=24.0 size=    3328kB time=00:00:47.83 bitrate= 570.0kbits/s speed=3.21x    frame= 1468 fps= 95 q=24.0 size=    3840kB time=00:00:48.86 bitrate= 643.7kbits/s speed=3.17x    frame= 1516 fps= 95 q=24.0 size=    4096kB time=00:00:50.43 bitrate= 665.3kbits/s speed=3.17x    frame= 1576 fps= 96 q=24.0 size=    4096kB time=00:00:52.46 bitrate= 639.5kbits/s speed=3.19x    frame= 1633 fps= 97 q=24.0 size=    4352kB time=00:00:54.36 bitrate= 655.8kbits/s speed=3.21x    frame= 1682 fps= 97 q=24.0 size=    4608kB time=00:00:56.00 bitrate= 674.1kbits/s speed=3.21x    frame= 1735 fps= 97 q=24.0 size=    4608kB time=00:00:57.76 bitrate= 653.5kbits/s speed=3.22x    frame= 1790 fps= 97 q=24.0 size=    4864kB time=00:00:59.60 bitrate= 668.6kbits/s speed=3.23x    frame= 1838 fps= 97 q=24.0 size=    5120kB time=00:01:01.20 bitrate= 685.4kbits/s speed=3.23x    frame= 1892 fps= 97 q=24.0 size=    5376kB time=00:01:02.96 bitrate= 699.4kbits/s speed=3.24x    frame= 1945 fps= 97 q=24.0 size=    5632kB time=00:01:04.76 bitrate= 712.4kbits/s speed=3.25x    frame= 2000 fps= 98 q=24.0 size=    5632kB time=00:01:06.60 bitrate= 692.8kbits/s speed=3.25x    frame= 2059 fps= 98 q=24.0 size=    5888kB time=00:01:08.56 bitrate= 703.5kbits/s speed=3.27x    frame= 2115 fps= 98 q=24.0 size=    5888kB time=00:01:10.43 bitrate= 684.8kbits/s speed=3.28x    frame= 2156 fps= 98 q=24.0 size=    6400kB time=00:01:11.80 bitrate= 730.2kbits/s speed=3.27x    [out#0/mp4 @ 0x24009bc0] video:6636kB audio:0kB subtitle:0kB other streams:0kB global headers:0kB muxing overhead: 0.402302%
frame= 2220 fps= 99 q=-1.0 Lsize=    6663kB time=00:01:13.90 bitrate= 738.6kbits/s speed=3.29x    
[libx264 @ 0x2400cd40] frame I:14    Avg QP: 6.09  size: 55872
[libx264 @ 0x2400cd40] frame P:592   Avg QP:11.49  size:  7018
[libx264 @ 0x2400cd40] frame B:1614  Avg QP:11.97  size:  1151
[libx264 @ 0x2400cd40] consecutive B-frames:  1.9%  2.2%  3.6% 92.3%
[libx264 @ 0x2400cd40] mb I  I16..4: 61.1% 31.5%  7.4%
[libx264 @ 0x2400cd40] mb P  I16..4:  7.6%  5.4%  0.3%  P16..4:  4.2%  0.9%  0.7%  0.0%  0.0%    skip:80.9%
[libx264 @ 0x2400cd40] mb B  I16..4:  0.4%  0.2%  0.0%  B16..8:  2.1%  0.1%  0.0%  direct: 8.3%  skip:88.9%  L0:44.8% L1:51.9% BI: 3.2%
[libx264 @ 0x2400cd40] 8x8 transform intra:38.5% inter:61.6%
[libx264 @ 0x2400cd40] coded y,uvDC,uvAC intra: 5.5% 10.2% 7.3% inter: 0.8% 7.4% 0.5%
[libx264 @ 0x2400cd40] i16 v,h,dc,p: 83% 14%  3%  0%
[libx264 @ 0x2400cd40] i8 v,h,dc,ddl,ddr,vr,hd,vl,hu: 52% 10% 36%  0%  0%  0%  0%  0%  0%
[libx264 @ 0x2400cd40] i4 v,h,dc,ddl,ddr,vr,hd,vl,hu: 35% 31% 15%  3%  4%  3%  3%  3%  3%
[libx264 @ 0x2400cd40] i8c dc,h,v,p: 80% 11%  8%  0%
[libx264 @ 0x2400cd40] Weighted P-Frames: Y:10.0% UV:7.1%
[libx264 @ 0x2400cd40] ref P L0: 74.4%  4.8% 14.9%  5.5%  0.3%
[libx264 @ 0x2400cd40] ref B L0: 85.2% 13.3%  1.5%
[libx264 @ 0x2400cd40] ref B L1: 95.5%  4.5%
[libx264 @ 0x2400cd40] kb/s:734.54
[export-video] transcoding chunk 3 → /home/runner/workspace/artifacts/vndrly-commercial/dist/video/raw/chunk-3.mp4 (trim 800ms, 77s)
ffmpeg version 6.1.2 Copyright (c) 2000-2024 the FFmpeg developers
  built with gcc 14.3.0 (GCC)
  configuration: --disable-static --prefix=/nix/store/eeeeeeeeeeeeeeeeeeeeeeeeeeeeeeee-ffmpeg-full-6.1.2 --target_os=linux --arch=x86_64 --pkg-config=pkg-config --enable-gpl --enable-version3 --disable-nonfree --disable-static --enable-shared --enable-pic --disable-thumb --disable-small --enable-runtime-cpudetect --enable-gray --enable-swscale-alpha --enable-hardcoded-tables --enable-safe-bitstream-reader --enable-pthreads --disable-w32threads --disable-os2threads --enable-network --enable-pixelutils --datadir=/nix/store/d7n6dq6npac4j0x7my10nnaf3qjcih3n-ffmpeg-full-6.1.2-data/share/ffmpeg --enable-ffmpeg --enable-ffplay --enable-ffprobe --bindir=/nix/store/eeeeeeeeeeeeeeeeeeeeeeeeeeeeeeee-ffmpeg-full-6.1.2-bin/bin --enable-avcodec --enable-avdevice --enable-avfilter --enable-avformat --enable-avutil --enable-postproc --enable-swresample --enable-swscale --libdir=/nix/store/eeeeeeeeeeeeeeeeeeeeeeeeeeeeeeee-ffmpeg-full-6.1.2-lib/lib --incdir=/nix/store/eeeeeeeeeeeeeeeeeeeeeeeeeeeeeeee-ffmpeg-full-6.1.2-dev/include --enable-doc --enable-htmlpages --enable-manpages --mandir=/nix/store/eeeeeeeeeeeeeeeeeeeeeeeeeeeeeeee-ffmpeg-full-6.1.2-man/share/man --enable-podpages --enable-txtpages --docdir=/nix/store/eeeeeeeeeeeeeeeeeeeeeeeeeeeeeeee-ffmpeg-full-6.1.2-doc/share/doc/ffmpeg --enable-alsa --enable-amf --enable-libaom --enable-libaribb24 --enable-libaribcaption --enable-libass --enable-avisynth --enable-libbluray --enable-libbs2b --enable-bzlib --enable-libcaca --enable-libcdio --enable-libcelt --enable-chromaprint --enable-libcodec2 --enable-cuda --enable-cuda-llvm --disable-cuda-nvcc --enable-cuvid --enable-libdav1d --enable-libdc1394 --enable-libdrm --disable-libfdk-aac --enable-ffnvcodec --enable-libflite --enable-fontconfig --enable-libfontconfig --enable-libfreetype --enable-frei0r --enable-libfribidi --enable-libgme --enable-gnutls --enable-libgsm --enable-libharfbuzz --enable-iconv --enable-libilbc --enable-libjack --enable-libjxl --enable-libkvazaar --enable-ladspa --enable-lcms2 --enable-lzma --disable-metal --enable-libmfx --enable-libmodplug --enable-libmp3lame --enable-libmysofa --disable-libnpp --enable-nvdec --enable-nvenc --enable-openal --enable-opencl --enable-libopencore-amrnb --enable-libopencore-amrwb --enable-opengl --enable-libopenh264 --enable-libopenjpeg --enable-libopenmpt --enable-libopus --enable-libplacebo --enable-libpulse --enable-librav1e --enable-librist --enable-librtmp --enable-librubberband --enable-libsmbclient --enable-sdl2 --enable-libshaderc --enable-libshine --enable-libsnappy --enable-libsoxr --enable-libspeex --enable-libsrt --enable-libssh --enable-librsvg --enable-libsvtav1 --disable-libtensorflow --enable-libtheora --enable-libtwolame --enable-libv4l2 --enable-v4l2-m2m --enable-vaapi --enable-vdpau --disable-libvpl --enable-libvidstab --enable-libvmaf --enable-libvo-amrwbenc --enable-libvorbis --enable-libvpx --enable-vulkan --enable-libwebp --enable-libx264 --enable-libx265 --enable-libxavs --enable-libxcb --enable-libxcb-shape --enable-libxcb-shm --enable-libxcb-xfixes --enable-xlib --enable-libxml2 --enable-libxvid --enable-libzimg --enable-zlib --enable-libzmq --enable-libzvbi --disable-debug --enable-optimizations --disable-extra-warnings --disable-stripping
  libavutil      58. 29.100 / 58. 29.100
  libavcodec     60. 31.102 / 60. 31.102
  libavformat    60. 16.100 / 60. 16.100
  libavdevice    60.  3.100 / 60.  3.100
  libavfilter     9. 12.100 /  9. 12.100
  libswscale      7.  5.100 /  7.  5.100
  libswresample   4. 12.100 /  4. 12.100
  libpostproc    57.  3.100 / 57.  3.100
Input #0, matroska,webm, from '/home/runner/workspace/artifacts/vndrly-commercial/dist/video/raw/chunk-3.webm':
  Metadata:
    ENCODER         : Lavf61.1.100
  Duration: 00:01:19.20, start: 0.000000, bitrate: 526 kb/s
  Stream #0:0: Video: vp8, yuv420p(progressive), 1280x720, SAR 1:1 DAR 16:9, 25 fps, 25 tbr, 1k tbn
    Metadata:
      ENCODER         : Lavc61.3.100 libvpx
      DURATION        : 00:01:19.200000000
Stream mapping:
  Stream #0:0 -> #0:0 (vp8 (native) -> h264 (libx264))
Press [q] to stop, [?] for help
[libx264 @ 0x1cdc8d00] using SAR=1/1
[libx264 @ 0x1cdc8d00] using cpu capabilities: MMX2 SSE2Fast SSSE3 SSE4.2 AVX FMA3 BMI2 AVX2 AVX512
[libx264 @ 0x1cdc8d00] profile High, level 4.0, 4:2:0, 8-bit
[libx264 @ 0x1cdc8d00] 264 - core 164 - H.264/MPEG-4 AVC codec - Copyleft 2003-2025 - http://www.videolan.org/x264.html - options: cabac=1 ref=3 deblock=1:0:0 analyse=0x3:0x113 me=hex subme=7 psy=1 psy_rd=1.00:0.00 mixed_ref=1 me_range=16 chroma_me=1 trellis=1 8x8dct=1 cqm=0 deadzone=21,11 fast_pskip=1 chroma_qp_offset=-2 threads=9 lookahead_threads=1 sliced_threads=0 nr=0 decimate=1 interlaced=0 bluray_compat=0 constrained_intra=0 bframes=3 b_pyramid=2 b_adapt=1 b_bias=0 direct=1 weightb=1 open_gop=0 weightp=2 keyint=250 keyint_min=25 scenecut=40 intra_refresh=0 rc_lookahead=40 rc=crf mbtree=1 crf=18.0 qcomp=0.60 qpmin=0 qpmax=69 qpstep=4 ip_ratio=1.40 aq=1:1.00
Output #0, mp4, to '/home/runner/workspace/artifacts/vndrly-commercial/dist/video/raw/chunk-3.mp4':
  Metadata:
    encoder         : Lavf60.16.100
  Stream #0:0: Video: h264 (avc1 / 0x31637661), yuv420p(tv, bt470bg/unknown/unknown, progressive), 1920x1080 [SAR 1:1 DAR 16:9], q=2-31, 30 fps, 15360 tbn
    Metadata:
      DURATION        : 00:01:19.200000000
      encoder         : Lavc60.31.102 libx264
    Side data:
      cpb: bitrate max/min/avg: 0/0/0 buffer size: 0 vbv_delay: N/A
frame=    0 fps=0.0 q=0.0 size=       0kB time=N/A bitrate=N/A speed=N/A    frame=   10 fps=0.0 q=24.0 size=       0kB time=00:00:00.26 bitrate=   1.4kbits/s speed=0.417x    frame=   75 fps= 65 q=24.0 size=       0kB time=00:00:02.43 bitrate=   0.2kbits/s speed=2.12x    frame=  136 fps= 82 q=24.0 size=     256kB time=00:00:04.46 bitrate= 469.6kbits/s speed=2.69x    frame=  190 fps= 88 q=24.0 size=     256kB time=00:00:06.26 bitrate= 334.7kbits/s speed= 2.9x    frame=  242 fps= 91 q=21.0 size=     256kB time=00:00:08.00 bitrate= 262.2kbits/s speed=   3x    frame=  289 fps= 91 q=24.0 size=     512kB time=00:00:09.56 bitrate= 438.5kbits/s speed=3.02x    frame=  341 fps= 92 q=24.0 size=     512kB time=00:00:11.30 bitrate= 371.2kbits/s speed=3.06x    frame=  378 fps= 90 q=24.0 size=     512kB time=00:00:12.53 bitrate= 334.7kbits/s speed=2.98x    frame=  412 fps= 88 q=24.0 size=     768kB time=00:00:13.66 bitrate= 460.4kbits/s speed= 2.9x    frame=  447 fps= 86 q=24.0 size=     768kB time=00:00:14.86 bitrate= 423.2kbits/s speed=2.85x    frame=  489 fps= 85 q=24.0 size=     768kB time=00:00:16.20 bitrate= 388.4kbits/s speed=2.83x    frame=  523 fps= 84 q=24.0 size=    1024kB time=00:00:17.36 bitrate= 483.1kbits/s speed=2.79x    frame=  588 fps= 87 q=24.0 size=    1024kB time=00:00:19.53 bitrate= 429.5kbits/s speed=2.88x    frame=  668 fps= 92 q=24.0 size=    1280kB time=00:00:22.20 bitrate= 472.3kbits/s speed=3.05x    frame=  745 fps= 95 q=24.0 size=    1280kB time=00:00:24.76 bitrate= 423.4kbits/s speed=3.17x    frame=  785 fps= 94 q=24.0 size=    1280kB time=00:00:26.10 bitrate= 401.8kbits/s speed=3.14x    frame=  819 fps= 92 q=24.0 size=    1536kB time=00:00:27.23 bitrate= 462.1kbits/s speed=3.08x    frame=  846 fps= 90 q=24.0 size=    2048kB time=00:00:28.10 bitrate= 597.1kbits/s speed=   3x    frame=  891 fps= 90 q=24.0 size=    2048kB time=00:00:29.63 bitrate= 566.2kbits/s speed=   3x    frame=  918 fps= 89 q=24.0 size=    2304kB time=00:00:30.53 bitrate= 618.2kbits/s speed=2.94x    frame=  957 fps= 88 q=24.0 size=    2560kB time=00:00:31.80 bitrate= 659.5kbits/s speed=2.92x    frame=  999 fps= 88 q=24.0 size=    2560kB time=00:00:33.20 bitrate= 631.7kbits/s speed=2.92x    frame= 1026 fps= 86 q=24.0 size=    2560kB time=00:00:34.13 bitrate= 614.4kbits/s speed=2.87x    frame= 1051 fps= 85 q=24.0 size=    2816kB time=00:00:34.96 bitrate= 659.7kbits/s speed=2.81x    frame= 1077 fps= 83 q=24.0 size=    3072kB time=00:00:35.86 bitrate= 701.7kbits/s speed=2.77x    frame= 1119 fps= 83 q=24.0 size=    3328kB time=00:00:37.23 bitrate= 732.2kbits/s speed=2.77x    frame= 1147 fps= 82 q=24.0 size=    3328kB time=00:00:38.13 bitrate= 714.9kbits/s speed=2.73x    frame= 1160 fps= 80 q=24.0 size=    3584kB time=00:00:38.60 bitrate= 760.6kbits/s speed=2.67x    frame= 1177 fps= 79 q=24.0 size=    3584kB time=00:00:39.16 bitrate= 749.6kbits/s speed=2.62x    frame= 1202 fps= 78 q=24.0 size=    3840kB time=00:00:40.00 bitrate= 786.4kbits/s speed=2.58x    frame= 1237 fps= 77 q=24.0 size=    3840kB time=00:00:41.13 bitrate= 764.8kbits/s speed=2.57x    frame= 1272 fps= 77 q=24.0 size=    3840kB time=00:00:42.30 bitrate= 743.7kbits/s speed=2.56x    frame= 1307 fps= 77 q=24.0 size=    4096kB time=00:00:43.50 bitrate= 771.4kbits/s speed=2.56x    frame= 1332 fps= 76 q=24.0 size=    4096kB time=00:00:44.33 bitrate= 756.9kbits/s speed=2.53x    frame= 1360 fps= 75 q=24.0 size=    4096kB time=00:00:45.26 bitrate= 741.3kbits/s speed= 2.5x    frame= 1413 fps= 76 q=24.0 size=    4352kB time=00:00:47.03 bitrate= 758.0kbits/s speed=2.53x    frame= 1446 fps= 76 q=24.0 size=    4352kB time=00:00:48.13 bitrate= 740.7kbits/s speed=2.52x    frame= 1475 fps= 75 q=24.0 size=    4352kB time=00:00:49.10 bitrate= 726.1kbits/s speed= 2.5x    frame= 1503 fps= 75 q=24.0 size=    4352kB time=00:00:50.03 bitrate= 712.6kbits/s speed=2.48x    frame= 1558 fps= 75 q=24.0 size=    4608kB time=00:00:51.86 bitrate= 727.8kbits/s speed=2.51x    frame= 1638 fps= 77 q=24.0 size=    4608kB time=00:00:54.53 bitrate= 692.2kbits/s speed=2.58x    frame= 1695 fps= 78 q=24.0 size=    4608kB time=00:00:56.43 bitrate= 668.9kbits/s speed= 2.6x    frame= 1756 fps= 79 q=24.0 size=    4864kB time=00:00:58.43 bitrate= 681.9kbits/s speed=2.63x    frame= 1810 fps= 80 q=24.0 size=    4864kB time=00:01:00.26 bitrate= 661.2kbits/s speed=2.66x    frame= 1868 fps= 81 q=24.0 size=    5120kB time=00:01:02.16 bitrate= 674.7kbits/s speed=2.68x    frame= 1916 fps= 81 q=24.0 size=    5120kB time=00:01:03.80 bitrate= 657.4kbits/s speed=2.69x    frame= 1968 fps= 81 q=24.0 size=    5120kB time=00:01:05.53 bitrate= 640.0kbits/s speed=2.71x    frame= 2018 fps= 82 q=24.0 size=    5376kB time=00:01:07.16 bitrate= 655.7kbits/s speed=2.72x    frame= 2080 fps= 82 q=24.0 size=    5376kB time=00:01:09.23 bitrate= 636.1kbits/s speed=2.75x    frame= 2124 fps= 83 q=24.0 size=    5632kB time=00:01:10.73 bitrate= 652.3kbits/s speed=2.75x    frame= 2167 fps= 83 q=24.0 size=    5632kB time=00:01:12.16 bitrate= 639.3kbits/s speed=2.75x    frame= 2215 fps= 83 q=24.0 size=    5888kB time=00:01:13.76 bitrate= 653.9kbits/s speed=2.76x    frame= 2257 fps= 83 q=24.0 size=    5888kB time=00:01:15.13 bitrate= 642.0kbits/s speed=2.76x    [out#0/mp4 @ 0x1cdc5bc0] video:6284kB audio:0kB subtitle:0kB other streams:0kB global headers:0kB muxing overhead: 0.440547%
frame= 2310 fps= 83 q=-1.0 Lsize=    6312kB time=00:01:16.90 bitrate= 672.4kbits/s speed=2.77x    
[libx264 @ 0x1cdc8d00] frame I:19    Avg QP: 7.08  size: 38548
[libx264 @ 0x1cdc8d00] frame P:637   Avg QP:11.90  size:  6062
[libx264 @ 0x1cdc8d00] frame B:1654  Avg QP:12.29  size:  1113
[libx264 @ 0x1cdc8d00] consecutive B-frames:  2.6%  4.5%  3.9% 89.0%
[libx264 @ 0x1cdc8d00] mb I  I16..4: 49.4% 45.9%  4.7%
[libx264 @ 0x1cdc8d00] mb P  I16..4:  6.5%  8.3%  0.2%  P16..4:  4.3%  0.9%  0.6%  0.0%  0.0%    skip:79.1%
[libx264 @ 0x1cdc8d00] mb B  I16..4:  0.3%  0.3%  0.0%  B16..8:  2.4%  0.1%  0.0%  direct: 6.6%  skip:90.2%  L0:44.0% L1:53.4% BI: 2.5%
[libx264 @ 0x1cdc8d00] 8x8 transform intra:53.2% inter:57.8%
[libx264 @ 0x1cdc8d00] coded y,uvDC,uvAC intra: 4.6% 9.7% 6.6% inter: 0.7% 6.1% 0.6%
[libx264 @ 0x1cdc8d00] i16 v,h,dc,p: 78% 18%  3%  0%
[libx264 @ 0x1cdc8d00] i8 v,h,dc,ddl,ddr,vr,hd,vl,hu: 51% 10% 37%  0%  0%  0%  0%  0%  0%
[libx264 @ 0x1cdc8d00] i4 v,h,dc,ddl,ddr,vr,hd,vl,hu: 32% 29% 18%  3%  4%  4%  4%  3%  3%
[libx264 @ 0x1cdc8d00] i8c dc,h,v,p: 82% 11%  7%  0%
[libx264 @ 0x1cdc8d00] Weighted P-Frames: Y:9.4% UV:6.3%
[libx264 @ 0x1cdc8d00] ref P L0: 71.1%  6.1% 17.3%  5.3%  0.2%
[libx264 @ 0x1cdc8d00] ref B L0: 86.6% 12.3%  1.1%
[libx264 @ 0x1cdc8d00] ref B L1: 95.8%  4.2%
[libx264 @ 0x1cdc8d00] kb/s:668.50
[export-video] concatenating 3 parts → /home/runner/workspace/artifacts/vndrly-commercial/dist/video/silent.mp4
ffmpeg version 6.1.2 Copyright (c) 2000-2024 the FFmpeg developers
  built with gcc 14.3.0 (GCC)
  configuration: --disable-static --prefix=/nix/store/eeeeeeeeeeeeeeeeeeeeeeeeeeeeeeee-ffmpeg-full-6.1.2 --target_os=linux --arch=x86_64 --pkg-config=pkg-config --enable-gpl --enable-version3 --disable-nonfree --disable-static --enable-shared --enable-pic --disable-thumb --disable-small --enable-runtime-cpudetect --enable-gray --enable-swscale-alpha --enable-hardcoded-tables --enable-safe-bitstream-reader --enable-pthreads --disable-w32threads --disable-os2threads --enable-network --enable-pixelutils --datadir=/nix/store/d7n6dq6npac4j0x7my10nnaf3qjcih3n-ffmpeg-full-6.1.2-data/share/ffmpeg --enable-ffmpeg --enable-ffplay --enable-ffprobe --bindir=/nix/store/eeeeeeeeeeeeeeeeeeeeeeeeeeeeeeee-ffmpeg-full-6.1.2-bin/bin --enable-avcodec --enable-avdevice --enable-avfilter --enable-avformat --enable-avutil --enable-postproc --enable-swresample --enable-swscale --libdir=/nix/store/eeeeeeeeeeeeeeeeeeeeeeeeeeeeeeee-ffmpeg-full-6.1.2-lib/lib --incdir=/nix/store/eeeeeeeeeeeeeeeeeeeeeeeeeeeeeeee-ffmpeg-full-6.1.2-dev/include --enable-doc --enable-htmlpages --enable-manpages --mandir=/nix/store/eeeeeeeeeeeeeeeeeeeeeeeeeeeeeeee-ffmpeg-full-6.1.2-man/share/man --enable-podpages --enable-txtpages --docdir=/nix/store/eeeeeeeeeeeeeeeeeeeeeeeeeeeeeeee-ffmpeg-full-6.1.2-doc/share/doc/ffmpeg --enable-alsa --enable-amf --enable-libaom --enable-libaribb24 --enable-libaribcaption --enable-libass --enable-avisynth --enable-libbluray --enable-libbs2b --enable-bzlib --enable-libcaca --enable-libcdio --enable-libcelt --enable-chromaprint --enable-libcodec2 --enable-cuda --enable-cuda-llvm --disable-cuda-nvcc --enable-cuvid --enable-libdav1d --enable-libdc1394 --enable-libdrm --disable-libfdk-aac --enable-ffnvcodec --enable-libflite --enable-fontconfig --enable-libfontconfig --enable-libfreetype --enable-frei0r --enable-libfribidi --enable-libgme --enable-gnutls --enable-libgsm --enable-libharfbuzz --enable-iconv --enable-libilbc --enable-libjack --enable-libjxl --enable-libkvazaar --enable-ladspa --enable-lcms2 --enable-lzma --disable-metal --enable-libmfx --enable-libmodplug --enable-libmp3lame --enable-libmysofa --disable-libnpp --enable-nvdec --enable-nvenc --enable-openal --enable-opencl --enable-libopencore-amrnb --enable-libopencore-amrwb --enable-opengl --enable-libopenh264 --enable-libopenjpeg --enable-libopenmpt --enable-libopus --enable-libplacebo --enable-libpulse --enable-librav1e --enable-librist --enable-librtmp --enable-librubberband --enable-libsmbclient --enable-sdl2 --enable-libshaderc --enable-libshine --enable-libsnappy --enable-libsoxr --enable-libspeex --enable-libsrt --enable-libssh --enable-librsvg --enable-libsvtav1 --disable-libtensorflow --enable-libtheora --enable-libtwolame --enable-libv4l2 --enable-v4l2-m2m --enable-vaapi --enable-vdpau --disable-libvpl --enable-libvidstab --enable-libvmaf --enable-libvo-amrwbenc --enable-libvorbis --enable-libvpx --enable-vulkan --enable-libwebp --enable-libx264 --enable-libx265 --enable-libxavs --enable-libxcb --enable-libxcb-shape --enable-libxcb-shm --enable-libxcb-xfixes --enable-xlib --enable-libxml2 --enable-libxvid --enable-libzimg --enable-zlib --enable-libzmq --enable-libzvbi --disable-debug --enable-optimizations --disable-extra-warnings --disable-stripping
  libavutil      58. 29.100 / 58. 29.100
  libavcodec     60. 31.102 / 60. 31.102
  libavformat    60. 16.100 / 60. 16.100
  libavdevice    60.  3.100 / 60.  3.100
  libavfilter     9. 12.100 /  9. 12.100
  libswscale      7.  5.100 /  7.  5.100
  libswresample   4. 12.100 /  4. 12.100
  libpostproc    57.  3.100 / 57.  3.100
[mov,mp4,m4a,3gp,3g2,mj2 @ 0xf314700] Auto-inserting h264_mp4toannexb bitstream filter
Input #0, concat, from '/home/runner/workspace/artifacts/vndrly-commercial/dist/video/raw/concat.txt':
  Duration: N/A, start: 0.000000, bitrate: 1485 kb/s
  Stream #0:0(und): Video: h264 (High) (avc1 / 0x31637661), yuv420p(tv, bt470bg/unknown/unknown, progressive), 1920x1080 [SAR 1:1 DAR 16:9], 1485 kb/s, 30 fps, 30 tbr, 15360 tbn
    Metadata:
      handler_name    : VideoHandler
      vendor_id       : [0][0][0][0]
      encoder         : Lavc60.31.102 libx264
Output #0, mp4, to '/home/runner/workspace/artifacts/vndrly-commercial/dist/video/silent.mp4':
  Metadata:
    encoder         : Lavf60.16.100
  Stream #0:0(und): Video: h264 (High) (avc1 / 0x31637661), yuv420p(tv, bt470bg/unknown/unknown, progressive), 1920x1080 [SAR 1:1 DAR 16:9], q=2-31, 1485 kb/s, 30 fps, 30 tbr, 15360 tbn
    Metadata:
      handler_name    : VideoHandler
      vendor_id       : [0][0][0][0]
      encoder         : Lavc60.31.102 libx264
Stream mapping:
  Stream #0:0 -> #0:0 (copy)
Press [q] to stop, [?] for help
size=       0kB time=-00:00:00.06 bitrate=  -0.0kbits/s speed=N/A    size=   15360kB time=00:01:17.16 bitrate=1630.6kbits/s speed= 154x    [mov,mp4,m4a,3gp,3g2,mj2 @ 0xf314700] Auto-inserting h264_mp4toannexb bitstream filter
size=   21248kB time=00:02:30.10 bitrate=1159.7kbits/s speed= 150x    [mov,mp4,m4a,3gp,3g2,mj2 @ 0xf314700] Auto-inserting h264_mp4toannexb bitstream filter
size=   26880kB time=00:03:26.70 bitrate=1065.3kbits/s speed= 121x    [out#0/mp4 @ 0xf31b200] video:29064kB audio:0kB subtitle:0kB other streams:0kB global headers:0kB muxing overhead: 0.291506%
size=   29149kB time=00:03:59.90 bitrate= 995.4kbits/s speed= 116x    
[export-video] muxing voiceover + ducked music ...
ffmpeg version 6.1.2 Copyright (c) 2000-2024 the FFmpeg developers
  built with gcc 14.3.0 (GCC)
  configuration: --disable-static --prefix=/nix/store/eeeeeeeeeeeeeeeeeeeeeeeeeeeeeeee-ffmpeg-full-6.1.2 --target_os=linux --arch=x86_64 --pkg-config=pkg-config --enable-gpl --enable-version3 --disable-nonfree --disable-static --enable-shared --enable-pic --disable-thumb --disable-small --enable-runtime-cpudetect --enable-gray --enable-swscale-alpha --enable-hardcoded-tables --enable-safe-bitstream-reader --enable-pthreads --disable-w32threads --disable-os2threads --enable-network --enable-pixelutils --datadir=/nix/store/d7n6dq6npac4j0x7my10nnaf3qjcih3n-ffmpeg-full-6.1.2-data/share/ffmpeg --enable-ffmpeg --enable-ffplay --enable-ffprobe --bindir=/nix/store/eeeeeeeeeeeeeeeeeeeeeeeeeeeeeeee-ffmpeg-full-6.1.2-bin/bin --enable-avcodec --enable-avdevice --enable-avfilter --enable-avformat --enable-avutil --enable-postproc --enable-swresample --enable-swscale --libdir=/nix/store/eeeeeeeeeeeeeeeeeeeeeeeeeeeeeeee-ffmpeg-full-6.1.2-lib/lib --incdir=/nix/store/eeeeeeeeeeeeeeeeeeeeeeeeeeeeeeee-ffmpeg-full-6.1.2-dev/include --enable-doc --enable-htmlpages --enable-manpages --mandir=/nix/store/eeeeeeeeeeeeeeeeeeeeeeeeeeeeeeee-ffmpeg-full-6.1.2-man/share/man --enable-podpages --enable-txtpages --docdir=/nix/store/eeeeeeeeeeeeeeeeeeeeeeeeeeeeeeee-ffmpeg-full-6.1.2-doc/share/doc/ffmpeg --enable-alsa --enable-amf --enable-libaom --enable-libaribb24 --enable-libaribcaption --enable-libass --enable-avisynth --enable-libbluray --enable-libbs2b --enable-bzlib --enable-libcaca --enable-libcdio --enable-libcelt --enable-chromaprint --enable-libcodec2 --enable-cuda --enable-cuda-llvm --disable-cuda-nvcc --enable-cuvid --enable-libdav1d --enable-libdc1394 --enable-libdrm --disable-libfdk-aac --enable-ffnvcodec --enable-libflite --enable-fontconfig --enable-libfontconfig --enable-libfreetype --enable-frei0r --enable-libfribidi --enable-libgme --enable-gnutls --enable-libgsm --enable-libharfbuzz --enable-iconv --enable-libilbc --enable-libjack --enable-libjxl --enable-libkvazaar --enable-ladspa --enable-lcms2 --enable-lzma --disable-metal --enable-libmfx --enable-libmodplug --enable-libmp3lame --enable-libmysofa --disable-libnpp --enable-nvdec --enable-nvenc --enable-openal --enable-opencl --enable-libopencore-amrnb --enable-libopencore-amrwb --enable-opengl --enable-libopenh264 --enable-libopenjpeg --enable-libopenmpt --enable-libopus --enable-libplacebo --enable-libpulse --enable-librav1e --enable-librist --enable-librtmp --enable-librubberband --enable-libsmbclient --enable-sdl2 --enable-libshaderc --enable-libshine --enable-libsnappy --enable-libsoxr --enable-libspeex --enable-libsrt --enable-libssh --enable-librsvg --enable-libsvtav1 --disable-libtensorflow --enable-libtheora --enable-libtwolame --enable-libv4l2 --enable-v4l2-m2m --enable-vaapi --enable-vdpau --disable-libvpl --enable-libvidstab --enable-libvmaf --enable-libvo-amrwbenc --enable-libvorbis --enable-libvpx --enable-vulkan --enable-libwebp --enable-libx264 --enable-libx265 --enable-libxavs --enable-libxcb --enable-libxcb-shape --enable-libxcb-shm --enable-libxcb-xfixes --enable-xlib --enable-libxml2 --enable-libxvid --enable-libzimg --enable-zlib --enable-libzmq --enable-libzvbi --disable-debug --enable-optimizations --disable-extra-warnings --disable-stripping
  libavutil      58. 29.100 / 58. 29.100
  libavcodec     60. 31.102 / 60. 31.102
  libavformat    60. 16.100 / 60. 16.100
  libavdevice    60.  3.100 / 60.  3.100
  libavfilter     9. 12.100 /  9. 12.100
  libswscale      7.  5.100 /  7.  5.100
  libswresample   4. 12.100 /  4. 12.100
  libpostproc    57.  3.100 / 57.  3.100
Input #0, mov,mp4,m4a,3gp,3g2,mj2, from '/home/runner/workspace/artifacts/vndrly-commercial/dist/video/silent.mp4':
  Metadata:
    major_brand     : isom
    minor_version   : 512
    compatible_brands: isomiso2avc1mp41
    encoder         : Lavf60.16.100
  Duration: 00:04:00.00, start: 0.000000, bitrate: 994 kb/s
  Stream #0:0[0x1](und): Video: h264 (High) (avc1 / 0x31637661), yuv420p(tv, bt470bg/unknown/unknown, progressive), 1920x1080 [SAR 1:1 DAR 16:9], 992 kb/s, 30 fps, 30 tbr, 15360 tbn (default)
    Metadata:
      handler_name    : VideoHandler
      vendor_id       : [0][0][0][0]
      encoder         : Lavc60.31.102 libx264
Input #1, mp3, from '/home/runner/workspace/artifacts/vndrly-commercial/public/audio/background-music.mp3':
  Metadata:
    encoded_by      : Logic Pro X
    date            : 2018-11-02
    coding_history  : 
    time_reference  : 158760000
    umid            : 0x000000000000000000000000000000000000000000000000000000000800A0AFC4B048B530E2FAE9FE7F000038002F070100000070E2FAE9FE7F00003DA62C5D
    encoder         : Lavf58.12.100
  Duration: 00:04:59.52, start: 0.025057, bitrate: 256 kb/s
  Stream #1:0: Audio: mp3, 44100 Hz, stereo, fltp, 256 kb/s
    Metadata:
      encoder         : Lavc58.18
Input #2, mp3, from '/home/runner/workspace/artifacts/vndrly-commercial/public/audio/voiceover.mp3':
  Metadata:
    encoder         : Lavf60.16.100
  Duration: 00:03:42.25, start: 0.025057, bitrate: 128 kb/s
  Stream #2:0: Audio: mp3, 44100 Hz, mono, fltp, 128 kb/s
[fc#0 @ 0x17724a80] Stream specifier 'vo' in filtergraph description 
    [1:a]volume=0.55[music];
    [2:a]volume=1.0[vo];
    [music][vo]sidechaincompress=threshold=0.05:ratio=8:attack=20:release=600[ducked];
    [ducked][vo]amix=inputs=2:duration=first:dropout_transition=0,alimiter=limit=0.95[outa]
   matches no streams.
Error initializing complex filters: Invalid argument
[export-video] FAILED: Error: bash /home/runner/workspace/artifacts/vndrly-commercial/scripts/mux-final.sh /home/runner/workspace/artifacts/vndrly-commercial/dist/video/silent.mp4 /home/runner/workspace/artifacts/vndrly-commercial/dist/video/vndrly-commercial.mp4 exited 234
    at ChildProcess.<anonymous> (file:///home/runner/workspace/artifacts/vndrly-commercial/scripts/export-video.mjs:89:19)
    at ChildProcess.emit (node:events:508:28)
    at ChildProcess._handle.onexit (node:internal/child_process:294:12)
